<svg width="248" height="757" viewBox="0 0 248 757" fill="none" xmlns="http://www.w3.org/2000/svg">
<mask id="mask0_188_36072" style="mask-type:alpha" maskUnits="userSpaceOnUse" x="0" y="0" width="248" height="757">
<rect width="248" height="757" fill="#004CDC"/>
</mask>
<g mask="url(#mask0_188_36072)">
<rect width="248" height="758" fill="#004CDC"/>
<path d="M57.4722 691.466C56.8935 704.486 54.2895 716.059 49.6602 726.186C47.6349 730.526 45.0309 734.721 41.8482 738.772C38.9549 742.823 35.3382 746.584 30.9982 750.056C26.6582 753.239 21.4502 755.698 15.3742 757.434C9.58754 759.459 2.78821 760.472 -5.0238 760.472C-12.8358 760.472 -19.7798 759.459 -25.8558 757.434C-31.9318 755.698 -37.1398 753.239 -41.4798 750.056C-45.8198 746.584 -49.4365 742.823 -52.3298 738.772C-55.2231 734.721 -57.6825 730.526 -59.7078 726.186C-64.3371 716.059 -66.9411 704.486 -67.5198 691.466V503.544C-66.9411 490.813 -64.3371 479.385 -59.7078 469.258C-57.6825 464.918 -55.2231 460.723 -52.3298 456.672C-49.4365 452.332 -45.8198 448.571 -41.4798 445.388C-37.1398 442.205 -31.9318 439.601 -25.8558 437.576C-19.7798 435.551 -12.8358 434.538 -5.0238 434.538C2.78821 434.538 9.58754 435.551 15.3742 437.576C21.4502 439.601 26.6582 442.205 30.9982 445.388C35.3382 448.571 38.9549 452.332 41.8482 456.672C45.0309 460.723 47.6349 464.918 49.6602 469.258C54.2895 479.385 56.8935 490.813 57.4722 503.544V691.466ZM10.6002 503.544C10.6002 499.204 10.0215 495.298 8.86421 491.826C7.99621 488.933 6.40488 486.329 4.09021 484.014C2.06488 481.41 -0.973126 480.108 -5.0238 480.108C-9.07446 480.108 -12.2571 481.41 -14.5718 484.014C-16.5971 486.329 -18.0438 488.933 -18.9118 491.826C-20.0691 495.298 -20.6478 499.204 -20.6478 503.544V691.466C-20.6478 696.095 -20.0691 700.001 -18.9118 703.184C-18.0438 706.367 -16.5971 709.115 -14.5718 711.43C-12.2571 713.745 -9.07446 714.902 -5.0238 714.902C-0.973126 714.902 2.06488 713.745 4.09021 711.43C6.40488 709.115 7.99621 706.367 8.86421 703.184C10.0215 700.001 10.6002 696.095 10.6002 691.466V503.544ZM76.792 507.016V477.07C86.6293 475.045 94.586 471.862 100.662 467.522C107.027 463.182 112.235 458.842 116.286 454.502C120.626 449.294 124.098 443.797 126.702 438.01H154.912V757H108.04V507.016H76.792Z" fill="#FE6266"/>
</g>
</svg>
