<svg width="248" height="719" viewBox="0 0 248 719" fill="none" xmlns="http://www.w3.org/2000/svg">
<mask id="mask0_188_36072" style="mask-type:alpha" maskUnits="userSpaceOnUse" x="0" y="0" width="248" height="719">
<rect width="248" height="719" fill="#004CDC"/>
</mask>
<g mask="url(#mask0_188_36072)">
<rect width="248" height="719" fill="#004CDC"/>
<path d="M57.4722 650.466C56.8935 663.486 54.2895 675.059 49.6602 685.186C47.6349 689.526 45.0309 693.721 41.8482 697.772C38.9549 701.823 35.3382 705.584 30.9982 709.056C26.6582 712.239 21.4502 714.698 15.3742 716.434C9.58754 718.459 2.78821 719.472 -5.0238 719.472C-12.8358 719.472 -19.7798 718.459 -25.8558 716.434C-31.9318 714.698 -37.1398 712.239 -41.4798 709.056C-45.8198 705.584 -49.4365 701.823 -52.3298 697.772C-55.2231 693.721 -57.6825 689.526 -59.7078 685.186C-64.3371 675.059 -66.9411 663.486 -67.5198 650.466V462.544C-66.9411 449.813 -64.3371 438.385 -59.7078 428.258C-57.6825 423.918 -55.2231 419.723 -52.3298 415.672C-49.4365 411.332 -45.8198 407.571 -41.4798 404.388C-37.1398 401.205 -31.9318 398.601 -25.8558 396.576C-19.7798 394.551 -12.8358 393.538 -5.0238 393.538C2.78821 393.538 9.58754 394.551 15.3742 396.576C21.4502 398.601 26.6582 401.205 30.9982 404.388C35.3382 407.571 38.9549 411.332 41.8482 415.672C45.0309 419.723 47.6349 423.918 49.6602 428.258C54.2895 438.385 56.8935 449.813 57.4722 462.544V650.466ZM10.6002 462.544C10.6002 458.204 10.0215 454.298 8.86421 450.826C7.99621 447.933 6.40488 445.329 4.09021 443.014C2.06488 440.41 -0.973126 439.108 -5.0238 439.108C-9.07446 439.108 -12.2571 440.41 -14.5718 443.014C-16.5971 445.329 -18.0438 447.933 -18.9118 450.826C-20.0691 454.298 -20.6478 458.204 -20.6478 462.544V650.466C-20.6478 655.095 -20.0691 659.001 -18.9118 662.184C-18.0438 665.367 -16.5971 668.115 -14.5718 670.43C-12.2571 672.745 -9.07446 673.902 -5.0238 673.902C-0.973126 673.902 2.06488 672.745 4.09021 670.43C6.40488 668.115 7.99621 665.367 8.86421 662.184C10.0215 659.001 10.6002 655.095 10.6002 650.466V462.544ZM76.792 466.016V436.07C86.6293 434.045 94.586 430.862 100.662 426.522C107.027 422.182 112.235 417.842 116.286 413.502C120.626 408.294 124.098 402.797 126.702 397.01H154.912V716H108.04V466.016H76.792Z" fill="#FE6266"/>
</g>
</svg>
