<svg width="247" height="248" viewBox="0 0 247 248" fill="none" xmlns="http://www.w3.org/2000/svg">
<mask id="mask0_188_36083" style="mask-type:alpha" maskUnits="userSpaceOnUse" x="0" y="0" width="247" height="248">
<rect width="247" height="248" fill="#004CDC"/>
</mask>
<g mask="url(#mask0_188_36083)">
<rect y="248" width="248" height="247" transform="rotate(-90 0 248)" fill="#FE6266"/>
<path d="M62.314 296.466C62.314 296.466 62.748 365.472 -0.182 365.472C-63.112 365.472 -62.678 296.466 -62.678 296.466V108.544C-62.678 108.544 -63.112 39.538 -0.182 39.538C62.748 39.538 62.314 108.544 62.314 108.544V296.466ZM15.442 108.544C15.442 108.544 16.31 85.108 -0.182 85.108C-16.674 85.108 -15.806 108.544 -15.806 108.544V296.466C-15.806 296.466 -16.674 319.902 -0.182 319.902C16.31 319.902 15.442 296.466 15.442 296.466V108.544ZM112.882 112.016H81.6338V82.07C120.694 74.258 131.544 43.01 131.544 43.01H159.754V362H112.882V112.016Z" fill="#004CDC"/>
</g>
</svg>
