<svg width="247" height="719" viewBox="0 0 247 719" fill="none" xmlns="http://www.w3.org/2000/svg">
<rect width="247" height="719" fill="#004CDC"/>
<mask id="mask0_194_4" style="mask-type:alpha" maskUnits="userSpaceOnUse" x="0" y="0" width="247" height="719">
<rect width="247" height="719" fill="#004CDC"/>
</mask>
<g mask="url(#mask0_194_4)">
<path d="M56.814 649.466C56.814 649.466 57.248 718.472 -5.682 718.472C-68.612 718.472 -68.178 649.466 -68.178 649.466V461.544C-68.178 461.544 -68.612 392.538 -5.682 392.538C57.248 392.538 56.814 461.544 56.814 461.544V649.466ZM9.94201 461.544C9.94201 461.544 10.81 438.108 -5.682 438.108C-22.174 438.108 -21.306 461.544 -21.306 461.544V649.466C-21.306 649.466 -22.174 672.902 -5.682 672.902C10.81 672.902 9.94201 649.466 9.94201 649.466V461.544ZM121.704 522.738L152.518 442.448H86.5498V396.01H200.258V442.882L162.5 529.682C198.956 545.306 205.032 589.14 205.032 633.408C205.032 641.654 202.862 718.472 144.272 718.472C85.6818 718.472 82.2098 659.014 82.2098 622.992H128.214C128.648 665.958 132.554 677.242 144.272 677.242C159.028 677.242 159.028 655.108 159.028 636.88C159.028 596.518 162.934 564.402 121.704 562.232V522.738Z" fill="#FE6266"/>
</g>
</svg>
