<svg width="247" height="757" viewBox="0 0 247 757" fill="none" xmlns="http://www.w3.org/2000/svg">
<rect width="247" height="757" fill="#004CDC"/>
<mask id="mask0_194_4" style="mask-type:alpha" maskUnits="userSpaceOnUse" x="0" y="0" width="247" height="757">
<rect width="247" height="757" fill="#004CDC"/>
</mask>
<g mask="url(#mask0_194_4)">
<path d="M56.814 690.466C56.2353 703.486 53.6313 715.059 49.002 725.186C46.9767 729.526 44.3727 733.721 41.19 737.772C38.2967 741.823 34.68 745.584 30.34 749.056C26 752.239 20.792 754.698 14.716 756.434C8.92934 758.459 2.13 759.472 -5.682 759.472C-13.494 759.472 -20.438 758.459 -26.514 756.434C-32.59 754.698 -37.798 752.239 -42.138 749.056C-46.478 745.584 -50.0947 741.823 -52.988 737.772C-55.8813 733.721 -58.3407 729.526 -60.366 725.186C-64.9953 715.059 -67.5993 703.486 -68.178 690.466V502.544C-67.5993 489.813 -64.9953 478.385 -60.366 468.258C-58.3407 463.918 -55.8813 459.723 -52.988 455.672C-50.0947 451.332 -46.478 447.571 -42.138 444.388C-37.798 441.205 -32.59 438.601 -26.514 436.576C-20.438 434.551 -13.494 433.538 -5.682 433.538C2.13 433.538 8.92934 434.551 14.716 436.576C20.792 438.601 26 441.205 30.34 444.388C34.68 447.571 38.2967 451.332 41.19 455.672C44.3727 459.723 46.9767 463.918 49.002 468.258C53.6313 478.385 56.2353 489.813 56.814 502.544V690.466ZM9.94201 502.544C9.94201 498.204 9.36334 494.298 8.206 490.826C7.33801 487.933 5.74667 485.329 3.43201 483.014C1.40667 480.41 -1.63133 479.108 -5.682 479.108C-9.73267 479.108 -12.9153 480.41 -15.23 483.014C-17.2553 485.329 -18.702 487.933 -19.57 490.826C-20.7273 494.298 -21.306 498.204 -21.306 502.544V690.466C-21.306 695.095 -20.7273 699.001 -19.57 702.184C-18.702 705.367 -17.2553 708.115 -15.23 710.43C-12.9153 712.745 -9.73267 713.902 -5.682 713.902C-1.63133 713.902 1.40667 712.745 3.43201 710.43C5.74667 708.115 7.33801 705.367 8.206 702.184C9.36334 699.001 9.94201 695.095 9.94201 690.466V502.544ZM152.518 483.448H86.5498V437.01H200.258V483.882L162.5 570.682C171.469 574.733 178.702 580.375 184.2 587.608C189.986 594.552 194.326 602.653 197.22 611.912C200.402 621.171 202.428 631.153 203.296 641.858C204.453 652.563 205.032 663.413 205.032 674.408C205.032 675.855 204.887 678.893 204.598 683.522C204.308 688.151 203.44 693.649 201.994 700.014C200.836 706.379 198.956 713.034 196.352 719.978C194.037 726.922 190.565 733.432 185.936 739.508C181.596 745.295 175.954 750.069 169.01 753.83C162.355 757.591 154.109 759.472 144.272 759.472C129.516 759.472 117.942 756.289 109.552 749.924C101.45 743.269 95.3744 735.168 91.3238 725.62C87.2731 715.783 84.6691 705.367 83.5118 694.372C82.6438 683.088 82.2098 672.961 82.2098 663.992H128.214C128.214 674.697 128.503 683.522 129.082 690.466C129.66 697.41 130.528 703.052 131.686 707.392C133.132 711.443 134.868 714.336 136.894 716.072C138.919 717.519 141.378 718.242 144.272 718.242C148.033 718.242 150.926 717.085 152.952 714.77C154.977 712.166 156.424 708.983 157.292 705.222C158.16 701.171 158.594 696.831 158.594 692.202C158.883 687.283 159.028 682.509 159.028 677.88C159.028 667.753 159.028 658.35 159.028 649.67C159.028 640.701 157.87 632.889 155.556 626.234C153.53 619.579 149.914 614.227 144.706 610.176C139.787 606.125 132.12 603.811 121.704 603.232V563.738L152.518 483.448Z" fill="#FE6266"/>
</g>
</svg>
