<svg width="128" height="192" viewBox="0 0 128 192" fill="none" xmlns="http://www.w3.org/2000/svg">
<mask id="path-1-inside-1_277_2" fill="white">
<path d="M32 192C57.4608 192 81.8787 181.886 99.8822 163.882C117.886 145.879 128 121.461 128 96C128 70.5392 117.886 46.1212 99.8823 28.1178C81.8788 10.1143 57.4608 7.61106e-07 32 -4.19629e-06L32 96L32 192Z"/>
</mask>
<path d="M32 192C57.4608 192 81.8787 181.886 99.8822 163.882C117.886 145.879 128 121.461 128 96C128 70.5392 117.886 46.1212 99.8823 28.1178C81.8788 10.1143 57.4608 7.61106e-07 32 -4.19629e-06L32 96L32 192Z" fill="#0E0E0E" stroke="white" stroke-width="2" mask="url(#path-1-inside-1_277_2)"/>
<circle cx="109" cy="81" r="7" fill="#004CDC"/>
</svg>
